{"title":"Pirates of the Caribbean-3 At World's End (2007) VHQ 1080p Blu-R","uid":15897015,"size":17919451680,"categoryP":"video","categoryS":"hd___movies","magnet":"?xt=urn:btih:602de63b71a5e89514749c6c84e44fc5aab0ce96&amp;dn=Pirates+of+the+Caribbean-3+At+World%27s+End+%282007%29+VHQ+1080p+Blu-R&amp;tr=udp%3A%2F%2Ftracker.leechers-paradise.org%3A6969&amp;tr=udp%3A%2F%2Fzer0day.ch%3A1337&amp;tr=udp%3A%2F%2Fopen.demonii.com%3A1337&amp;tr=udp%3A%2F%2Ftracker.coppersurfer.tk%3A6969&amp;tr=udp%3A%2F%2Fexodus.desync.com%3A6969","seeders":2,"leechers":18,"uploader":"SaM","files":3,"time":1474821466,"description":"HQ 1080p Blu-ray Rip x264\r\n\r\nFrançais DTS 5.1 Audio\r\n\r\nEnglish &amp; French Subtitle \r\n \nhttps://extraimago.com/image/w9AY \nhttps://extraimago.com/image/w9AC \nhttps://extraimago.com/image/w9AB \nhttps://extraimago.com/image/w9A4 \nhttps://extraimago.com/image/w9Ae \nhttps://extraimago.com/image/w9AZ \nhttps://extraimago.com/image/w9AK \nhttps://extraimago.com/image/w9AJ \nhttps://extraimago.com/image/w9A0 \nhttps://extraimago.com/image/w9Az \nhttps://extraimago.com/image/w9AU\r\n\r\nSpecs:\r\nSource: French BD50 @ DDR\r\n\r\nFormat : Matroska\r\nFormat version : Version 4 / Version 2\r\nFile size : 16.6 GiB\r\nDuration : 2 h 48 min\r\nOverall bit rate : 14.1 Mb/s\r\n\r\nVideo\r\nID : 1\r\nFormat : AVC\r\nFormat/Info : Advanced Video Codec\r\nFormat profile :   \r\nFormat settings, CABAC : Yes\r\nFormat settings, ReFrames : 5 frames\r\nCodec ID : V_MPEG4/ISO/AVC\r\nDuration : 2 h 48 min\r\nBit rate : 12.6 Mb/s\r\nWidth : 1 920 pixels\r\nHeight : 800 pixels\r\nDisplay aspect ratio : 2.40:1\r\nFrame rate mode : Constant\r\nFrame rate : 23.976 (24000/1001) FPS\r\nColor space : YUV\r\nChroma subsampling : 4:2:0\r\nBit depth : 8 bits\r\nScan type : Progressive\r\nBits/(Pixel*Frame) : 0.341\r\nStream size : 14.8 GiB (89%)\r\nLanguage : English\r\nDefault : Yes\r\nForced : No\r\nColor range : Limited\r\nColor primaries : BT.709\r\nTransfer characteristics : BT.709\r\nMatrix coefficients : BT.709\r\n\r\nAudio\r\nID : 2\r\nFormat : DTS\r\nFormat/Info : Digital Theater Systems\r\nMode : 16\r\nFormat settings, Endianness : Big\r\nCodec ID : A_DTS\r\nDuration : 2 h 48 min\r\nBit rate mode : Constant\r\nBit rate : 1 509 kb/s\r\nChannel(s) : 6 channels\r\nChannel positions : Front: L C R, Side: L R, LFE\r\nSampling rate : 48.0 kHz\r\nFrame rate : 93.750 FPS (512 spf)\r\nBit depth : 24 bits\r\nCompression mode : Lossy\r\nStream size : 1.78 GiB (11%)\r\nLanguage : French\r\nDefault : Yes\r\nForced : No","torrent":{"xt":"urn:btih:602de63b71a5e89514749c6c84e44fc5aab0ce96","amp;dn":"Pirates+of+the+Caribbean-3+At+World%27s+End+%282007%29+VHQ+1080p+Blu-R","amp;tr":["udp%3A%2F%2Ftracker.leechers-paradise.org%3A6969","udp%3A%2F%2Fzer0day.ch%3A1337","udp%3A%2F%2Fopen.demonii.com%3A1337","udp%3A%2F%2Ftracker.coppersurfer.tk%3A6969","udp%3A%2F%2Fexodus.desync.com%3A6969"],"infoHash":"602de63b71a5e89514749c6c84e44fc5aab0ce96","infoHashBuffer":{"type":"Buffer","data":[96,45,230,59,113,165,232,149,20,116,156,108,132,228,79,197,170,176,206,150]},"announce":[],"urlList":[]}}